# xmcd
#
# Track frame offsets: 
#        150
#        12387
#        26968
#        43346
#        56531
#        70074
#        89961
#        115981
#        137445
#        167532
#        209185
#
# Disc length: 4092 seconds
#
# Revision: 0
# Processed by: cddbd v1.5.2PL0 Copyright (c) Steve Scherf et al.
# Submitted via: ExactAudioCopy v1.1
#
DISCID=a70ffa0b
DTITLE=呂文成 劉天一 余其偉 - 20世紀中華樂壇名人名曲珍藏版_高胡篇
DYEAR=1900
DGENRE=Classical
TTITLE0=呂文成 - 醒獅
TTITLE1=呂文成 - 二龍爭珠
TTITLE2=劉天一 - 春到田間
TTITLE3=劉天一 - 魚游春水
TTITLE4=劉天一 - 鳥投林
TTITLE5=劉天一 - 平湖秋月
TTITLE6=余其偉 - 西江月
TTITLE7=余其偉 - 雙聲恨
TTITLE8=余其偉 - 思念
TTITLE9=余其偉 - 珠江之戀
TTITLE10=余其偉 - 粵魂
EXTD=
EXTT0=
EXTT1=
EXTT2=
EXTT3=
EXTT4=
EXTT5=
EXTT6=
EXTT7=
EXTT8=
EXTT9=
EXTT10=
PLAYORDER=
